{
  "accessors": [
    {
      "bufferView": 2,
      "componentType": 5126,
      "count": 29416,
      "max": [
        4.9062371253967285,
        -3.8981490135192871,
        20.409093856811523
      ],
      "min": [
        -4.5382962226867676,
        -13.379976272583008,
        11.164499282836914
      ],
      "type": "VEC3"
    },
    {
      "bufferView": 2,
      "byteOffset": 352992,
      "componentType": 5126,
      "count": 29416,
      "max": [
        0.99983566999435425,
        0.99996674060821533,
        1
      ],
      "min": [
        -0.99984836578369141,
        -0.99996674060821533,
        -1
      ],
      "type": "VEC3"
    },
    {
      "bufferView": 3,
      "componentType": 5126,
      "count": 29416,
      "max": [
        1,
        1,
        1,
        1
      ],
      "min": [
        -1,
        -0.99999755620956421,
        -1,
        1
      ],
      "type": "VEC4"
    },
    {
      "bufferView": 1,
      "componentType": 5126,
      "count": 29416,
      "max": [
        0.97465002536773682,
        0.99800801277160645
      ],
      "min": [
        0.0019450000254437327,
        0.0019920000340789557
      ],
      "type": "VEC2"
    },
    {
      "bufferView": 0,
      "componentType": 5125,
      "count": 128448,
      "max": [
        29415
      ],
      "min": [
        0
      ],
      "type": "SCALAR"
    },
    {
      "bufferView": 2,
      "byteOffset": 705984,
      "componentType": 5126,
      "count": 29416,
      "max": [
        4.9062371253967285,
        14.016023635864258,
        17.741983413696289
      ],
      "min": [
        -4.5382962226867676,
        4.5341968536376953,
        8.4973907470703125
      ],
      "type": "VEC3"
    },
    {
      "bufferView": 2,
      "byteOffset": 1058976,
      "componentType": 5126,
      "count": 29416,
      "max": [
        0.99983566999435425,
        0.99996674060821533,
        1
      ],
      "min": [
        -0.99984836578369141,
        -0.99996674060821533,
        -1
      ],
      "type": "VEC3"
    },
    {
      "bufferView": 3,
      "byteOffset": 470656,
      "componentType": 5126,
      "count": 29416,
      "max": [
        1,
        1,
        1,
        1
      ],
      "min": [
        -1,
        -0.99999761581420898,
        -1,
        1
      ],
      "type": "VEC4"
    },
    {
      "bufferView": 1,
      "byteOffset": 235328,
      "componentType": 5126,
      "count": 29416,
      "max": [
        0.97465002536773682,
        0.99800801277160645
      ],
      "min": [
        0.0019450000254437327,
        0.0019920000340789557
      ],
      "type": "VEC2"
    },
    {
      "bufferView": 0,
      "byteOffset": 513792,
      "componentType": 5125,
      "count": 128448,
      "max": [
        29415
      ],
      "min": [
        0
      ],
      "type": "SCALAR"
    },
    {
      "bufferView": 2,
      "byteOffset": 1411968,
      "componentType": 5126,
      "count": 29416,
      "max": [
        4.9062371253967285,
        4.7196497917175293,
        11.507858276367188
      ],
      "min": [
        -4.5382962226867676,
        -4.7621769905090332,
        2.2632648944854736
      ],
      "type": "VEC3"
    },
    {
      "bufferView": 2,
      "byteOffset": 1764960,
      "componentType": 5126,
      "count": 29416,
      "max": [
        0.99983566999435425,
        0.99996674060821533,
        1
      ],
      "min": [
        -0.99984836578369141,
        -0.99996674060821533,
        -1
      ],
      "type": "VEC3"
    },
    {
      "bufferView": 3,
      "byteOffset": 941312,
      "componentType": 5126,
      "count": 29416,
      "max": [
        1,
        1,
        1,
        1
      ],
      "min": [
        -1,
        -0.99999755620956421,
        -1,
        1
      ],
      "type": "VEC4"
    },
    {
      "bufferView": 1,
      "byteOffset": 470656,
      "componentType": 5126,
      "count": 29416,
      "max": [
        0.97465002536773682,
        0.99800801277160645
      ],
      "min": [
        0.0019450000254437327,
        0.0019920000340789557
      ],
      "type": "VEC2"
    },
    {
      "bufferView": 0,
      "byteOffset": 1027584,
      "componentType": 5125,
      "count": 128448,
      "max": [
        29415
      ],
      "min": [
        0
      ],
      "type": "SCALAR"
    }
  ],
  "asset": {
    "extras": {
      "author": "omkar.jawake (https://sketchfab.com/omkar.jawake)",
      "license": "CC-BY-4.0 (http://creativecommons.org/licenses/by/4.0/)",
      "source": "https://sketchfab.com/3d-models/corona-virus-molecules-968eae61062847478444b05481703986",
      "title": "Corona Virus Molecules"
    },
    "generator": "Sketchfab-8.14.0",
    "version": "2.0"
  },
  "bufferViews": [
    {
      "buffer": 0,
      "byteLength": 1541376,
      "byteOffset": 0,
      "name": "floatBufferViews",
      "target": 34963
    },
    {
      "buffer": 0,
      "byteLength": 705984,
      "byteOffset": 1541376,
      "byteStride": 8,
      "name": "floatBufferViews",
      "target": 34962
    },
    {
      "buffer": 0,
      "byteLength": 2117952,
      "byteOffset": 2247360,
      "byteStride": 12,
      "name": "floatBufferViews",
      "target": 34962
    },
    {
      "buffer": 0,
      "byteLength": 1411968,
      "byteOffset": 4365312,
      "byteStride": 16,
      "name": "floatBufferViews",
      "target": 34962
    }
  ],
  "buffers": [
    {
      "byteLength": 5777280,
      "uri": "scene.bin"
    }
  ],
  "images": [
    {
      "uri": "textures/aiStandardSurface1SG_baseColor.png"
    },
    {
      "uri": "textures/aiStandardSurface1SG_normal.png"
    }
  ],
  "materials": [
    {
      "doubleSided": true,
      "name": "aiStandardSurface1SG",
      "normalTexture": {
        "index": 1,
        "scale": 0.98342225609756095,
        "texCoord": 0
      },
      "pbrMetallicRoughness": {
        "baseColorFactor": [
          1,
          1,
          1,
          1
        ],
        "baseColorTexture": {
          "index": 0,
          "texCoord": 0
        },
        "metallicFactor": 0,
        "roughnessFactor": 0.58708079268292679
      }
    }
  ],
  "meshes": [
    {
      "primitives": [
        {
          "attributes": {
            "NORMAL": 1,
            "POSITION": 0,
            "TANGENT": 2,
            "TEXCOORD_0": 3
          },
          "indices": 4,
          "material": 0,
          "mode": 4
        }
      ]
    },
    {
      "primitives": [
        {
          "attributes": {
            "NORMAL": 6,
            "POSITION": 5,
            "TANGENT": 7,
            "TEXCOORD_0": 8
          },
          "indices": 9,
          "material": 0,
          "mode": 4
        }
      ]
    },
    {
      "primitives": [
        {
          "attributes": {
            "NORMAL": 11,
            "POSITION": 10,
            "TANGENT": 12,
            "TEXCOORD_0": 13
          },
          "indices": 14,
          "material": 0,
          "mode": 4
        }
      ]
    }
  ],
  "nodes": [
    {
      "children": [
        1
      ],
      "name": "RootNode (gltf orientation matrix)",
      "rotation": [
        -0.70710678118654746,
        -0,
        -0,
        0.70710678118654757
      ]
    },
    {
      "children": [
        2
      ],
      "name": "RootNode (model correction matrix)"
    },
    {
      "children": [
        3,
        4,
        5
      ],
      "name": "sketchfab.obj.cleaner.materialmerger.gles"
    },
    {
      "mesh": 0,
      "name": ""
    },
    {
      "mesh": 1,
      "name": ""
    },
    {
      "mesh": 2,
      "name": ""
    }
  ],
  "samplers": [
    {
      "magFilter": 9729,
      "minFilter": 9987,
      "wrapS": 10497,
      "wrapT": 10497
    }
  ],
  "scene": 0,
  "scenes": [
    {
      "name": "OSG_Scene",
      "nodes": [
        0
      ]
    }
  ],
  "textures": [
    {
      "sampler": 0,
      "source": 0
    },
    {
      "sampler": 0,
      "source": 1
    }
  ]
}

